<?xml version="1.0" encoding="UTF-8" standalone="no"?>
<svg width="29px" height="32px" viewBox="0 0 29 32" version="1.1" xmlns="http://www.w3.org/2000/svg" xmlns:xlink="http://www.w3.org/1999/xlink" xmlns:sketch="http://www.bohemiancoding.com/sketch/ns">
    <!-- Generator: sketchtool 3.4 (356) - http://www.bohemiancoding.com/sketch -->
    <title>иконка рубль</title>
    <desc>Created with sketchtool.</desc>
    <defs></defs>
    <g id="Page-1" stroke="none" stroke-width="1" fill="none" fill-rule="evenodd" sketch:type="MSPage">
        <g id="Главная-страница" sketch:type="MSArtboardGroup" transform="translate(-412.000000, -2752.000000)" fill="#5D5D5D">
            <g id="преимущества" sketch:type="MSLayerGroup" transform="translate(412.000000, 2646.000000)">
                <g id="Самые-низкие-цены-+-иконка-рубль" transform="translate(0.000000, 106.000000)" sketch:type="MSShapeGroup">
                    <g id="иконка-рубль">
                        <path d="M0.736625,26.2918222 L5.809,26.2918222 L5.809,30.5560004 C5.809,30.7634724 5.8766875,30.9333114 6.012875,31.066069 C6.1486875,31.1996846 6.3223125,31.2664924 6.5338125,31.2664924 L10.3151875,31.2664924 C10.5114375,31.2664924 10.68125,31.1996846 10.8246875,31.066069 C10.968125,30.9333114 11.039625,30.7634111 11.039625,30.5560004 L11.039625,26.2918222 L22.474875,26.2918222 C22.6859375,26.2918222 22.859625,26.2258725 22.99575,26.0922568 C23.132,25.9587638 23.199625,25.7888022 23.199625,25.5813302 L23.199625,22.7388103 C23.199625,22.5325641 23.132,22.3614993 22.99575,22.2287418 C22.86,22.0951261 22.6859375,22.0283183 22.474875,22.0283183 L11.03925,22.0283183 L11.03925,19.4078578 L18.73825,19.4078578 C21.7573125,19.4078578 24.221375,18.505707 26.1315625,16.6988311 C28.041,14.8938552 28.9961875,12.562262 28.9961875,9.70392892 C28.9961875,6.84749589 28.041,4.51584141 26.1315625,2.70902677 C24.22175,0.903989589 21.75725,0 18.73825,0 L6.5334375,0 C6.321875,0 6.148625,0.0667465362 6.0125,0.199565401 C5.8766875,0.333119765 5.808625,0.504123288 5.808625,0.710430763 L5.808625,14.6785378 L0.736625,14.6785378 C0.525125,14.6785378 0.3518125,14.7487167 0.2156875,14.8893196 C0.0799375,15.0299838 0.0118125,15.196513 0.0118125,15.3889073 L0.0118125,18.6973045 C0.0118125,18.9047765 0.0795,19.0747381 0.2156875,19.2082312 C0.351875,19.3418468 0.52475,19.4077966 0.736625,19.4077966 L5.809,19.4077966 L5.809,22.028257 L0.736625,22.028257 C0.525125,22.028257 0.3518125,22.0950648 0.2156875,22.2286805 C0.0799375,22.361438 0.0118125,22.5321351 0.0118125,22.738749 L0.0118125,25.5812689 C0.0118125,25.7887409 0.0795,25.9587025 0.2156875,26.0921955 C0.3518125,26.2258725 0.5250625,26.2918222 0.736625,26.2918222 L0.736625,26.2918222 Z M11.03925,4.73042325 L18.285375,4.73042325 C19.885375,4.73042325 21.175875,5.18919076 22.1574375,6.10703225 C23.1385,7.02493503 23.62925,8.22447264 23.62925,9.70429667 C23.62925,11.1848562 23.1385,12.3847616 22.1574375,13.3015611 C21.175875,14.2201994 19.8853125,14.6789669 18.285375,14.6789669 L11.03925,14.6789669 L11.03925,4.73042325 L11.03925,4.73042325 Z" id="Shape"></path>
                    </g>
                </g>
            </g>
        </g>
    </g>
</svg>