<?xml version="1.0" encoding="UTF-8" standalone="no"?>
<svg width="26px" height="23px" viewBox="0 0 26 23" version="1.1" xmlns="http://www.w3.org/2000/svg" xmlns:xlink="http://www.w3.org/1999/xlink" xmlns:sketch="http://www.bohemiancoding.com/sketch/ns">
    <!-- Generator: sketchtool 3.4 (356) - http://www.bohemiancoding.com/sketch -->
    <title>местооложение футер</title>
    <desc>Created with sketchtool.</desc>
    <defs></defs>
    <g id="Page-1" stroke="none" stroke-width="1" fill="none" fill-rule="evenodd" sketch:type="MSPage">
        <g id="Главная-страница" sketch:type="MSArtboardGroup" transform="translate(-817.000000, -4661.000000)" fill="#C0C0C0">
            <g id="футер" sketch:type="MSLayerGroup" transform="translate(-8.000000, 4628.000000)">
                <g id="Адрес" transform="translate(825.000000, 32.000000)" sketch:type="MSShapeGroup">
                    <g id="местооложение-футер" transform="translate(0.000000, 1.000000)">
                        <path d="M12.9875735,17.7719863 C13.7065882,17.7719863 19.7074902,10.3811511 19.7074902,6.70108791 C19.7074902,3.0211511 16.6988186,0.0379120879 12.9875735,0.0379120879 C9.27607353,0.0379120879 6.26752941,3.0211511 6.26752941,6.70108791 C6.26752941,10.3810879 12.2945588,17.7719863 12.9875735,17.7719863 L12.9875735,17.7719863 Z M8.64691176,6.46773901 C8.64691176,4.09077747 10.5901569,2.1638956 12.9875735,2.1638956 C15.3847353,2.1638956 17.3281078,4.09077747 17.3281078,6.46773901 C17.3281078,8.84470055 15.3847353,10.7716456 12.9875735,10.7716456 C10.5901569,10.7716456 8.64691176,8.84470055 8.64691176,6.46773901 L8.64691176,6.46773901 Z" id="Shape"></path>
                        <path d="M24.9222745,12.6794451 C24.9222745,12.0657115 24.4188431,11.5664725 23.7998775,11.5664725 L19.7072353,11.5664725 C19.6218431,11.5664725 19.5235147,11.5619863 19.4153725,11.7418791 C19.1994069,12.1012857 19.2183333,12.0696923 19.0156225,12.4023709 C18.9213088,12.5571154 19.0640539,12.6095604 19.1228088,12.6095604 L23.8000049,12.6095604 C23.8374755,12.6095604 23.8703578,12.6422912 23.8703578,12.6793187 L24.9231029,21.8241566 C24.9231029,21.8613104 24.8902206,21.893978 24.8526863,21.893978 L1.12258824,21.893978 C1.08486275,21.893978 1.05217157,21.8612473 1.05217157,21.8241566 L2.10472549,12.6794451 C2.10472549,12.6422912 2.13760784,12.6096868 2.17514216,12.6096868 L6.81601471,12.6096868 C6.91160294,12.6096868 7.06295098,12.5545879 6.89082843,12.2767555 C6.68888235,11.9509011 6.76713725,12.0463764 6.55314706,11.685706 C6.4734902,11.5514341 6.36305392,11.5664093 6.21361765,11.5664093 L2.17514216,11.5664093 C1.55643137,11.5664093 1.0527451,12.0656484 1.0527451,12.6793819 L0,21.824283 C0,22.4380165 0.503558824,22.9371923 1.12252451,22.9371923 L24.8524314,22.9371923 C25.4715245,22.9371923 25.9748284,22.4380165 25.9748284,21.824283 L24.9222745,12.6794451 L24.9222745,12.6794451 Z" id="Shape"></path>
                    </g>
                </g>
            </g>
        </g>
    </g>
</svg>