<?xml version="1.0" encoding="UTF-8" standalone="no"?>
<svg width="19px" height="18px" viewBox="0 0 19 18" version="1.1" xmlns="http://www.w3.org/2000/svg" xmlns:xlink="http://www.w3.org/1999/xlink" xmlns:sketch="http://www.bohemiancoding.com/sketch/ns">
    <!-- Generator: sketchtool 3.4 (356) - http://www.bohemiancoding.com/sketch -->
    <title>сообщение иконка</title>
    <desc>Created with sketchtool.</desc>
    <defs>
        <linearGradient x1="50%" y1="0%" x2="50%" y2="100%" id="linearGradient-1">
            <stop stop-color="#59B8E5" offset="0%"></stop>
            <stop stop-color="#439DCD" offset="100%"></stop>
        </linearGradient>
    </defs>
    <g id="Page-1" stroke="none" stroke-width="1" fill="none" fill-rule="evenodd" sketch:type="MSPage">
        <g id="Главная-страница" sketch:type="MSArtboardGroup" transform="translate(-443.000000, -4562.000000)" fill="url(#linearGradient-1)">
            <g id="заявка" sketch:type="MSLayerGroup" transform="translate(54.000000, 4166.000000)">
                <g id="форма" transform="translate(359.000000, 0.000000)" sketch:type="MSShapeGroup">
                    <g id="В-течение-5-минут-на-+-Shape" transform="translate(30.000000, 396.000000)">
                        <g id="сообщение-иконка">
                            <path d="M15.4857291,0.00835872236 L3.50715124,0.00835872236 C1.57331151,0.00835872236 0,1.63057002 0,3.62476658 L0,11.1450516 C0,13.1392924 1.57331151,14.7615479 3.50715124,14.7615479 L11.7763544,14.7615479 L14.7651445,17.8430418 C14.854526,17.9353857 14.9741445,17.9842555 15.0958646,17.9842555 C15.1559955,17.9842555 15.2168984,17.9724029 15.2746275,17.9476364 C15.4494447,17.8731597 15.5633589,17.6970516 15.5633589,17.5021916 L15.5633589,14.7606192 C17.4614718,14.7177641 18.9928375,13.1123587 18.9928375,11.1450516 L18.9928375,3.62481081 C18.9928375,1.63057002 17.4195688,0.00835872236 15.4857291,0.00835872236 L15.4857291,0.00835872236 Z M18.0576343,11.1450074 C18.0576343,12.6071646 16.9039097,13.7971106 15.4856433,13.7971106 L15.0956072,13.7971106 C14.8373702,13.7971106 14.62807,14.012801 14.62807,14.2792629 L14.62807,16.3381179 L12.3005914,13.9383243 C12.2129684,13.8479705 12.0939932,13.7971106 11.9700429,13.7971106 L3.50715124,13.7971106 C2.08901354,13.7971106 0.93520316,12.6071646 0.93520316,11.1450074 L0.93520316,3.62481081 C0.93520316,2.16225553 2.08901354,0.972707617 3.50715124,0.972707617 L15.4856862,0.972707617 C16.9038668,0.972707617 18.0576772,2.1622113 18.0576772,3.62481081 L18.0576772,11.1450074 L18.0576343,11.1450074 Z" id="Shape"></path>
                            <path d="M5.11237246,6.33529238 C4.53126411,6.33529238 4.06025282,6.82124816 4.06025282,7.4202457 C4.06025282,8.0196855 4.53126411,8.50519902 5.11237246,8.50519902 C5.69322348,8.50519902 6.16453499,8.01964128 6.16453499,7.4202457 C6.16453499,6.82124816 5.69322348,6.33529238 5.11237246,6.33529238 L5.11237246,6.33529238 Z" id="Shape"></path>
                            <path d="M9.4963544,6.33529238 C8.91524605,6.33529238 8.44419187,6.82124816 8.44419187,7.4202457 C8.44419187,8.0196855 8.91524605,8.50519902 9.4963544,8.50519902 C10.0772054,8.50519902 10.5485169,8.01964128 10.5485169,7.4202457 C10.548474,6.82124816 10.0772054,6.33529238 9.4963544,6.33529238 L9.4963544,6.33529238 Z" id="Shape"></path>
                            <path d="M13.8803792,6.33529238 C13.2992709,6.33529238 12.8281738,6.82124816 12.8281738,7.4202457 C12.8281738,8.0196855 13.2992709,8.50519902 13.8803792,8.50519902 C14.4612302,8.50519902 14.9324131,8.01964128 14.9324131,7.4202457 C14.9324131,6.82124816 14.4612302,6.33529238 13.8803792,6.33529238 L13.8803792,6.33529238 Z" id="Shape"></path>
                        </g>
                    </g>
                </g>
            </g>
        </g>
    </g>
</svg>