<?xml version="1.0" encoding="UTF-8" standalone="no"?>
<svg width="18px" height="18px" viewBox="0 0 18 18" version="1.1" xmlns="http://www.w3.org/2000/svg" xmlns:xlink="http://www.w3.org/1999/xlink" xmlns:sketch="http://www.bohemiancoding.com/sketch/ns">
    <!-- Generator: sketchtool 3.4 (356) - http://www.bohemiancoding.com/sketch -->
    <title>часы</title>
    <desc>Created with sketchtool.</desc>
    <defs></defs>
    <g id="Page-1" stroke="none" stroke-width="1" fill="none" fill-rule="evenodd" sketch:type="MSPage">
        <g id="Главная-страница" sketch:type="MSArtboardGroup" transform="translate(-452.000000, -4454.000000)" fill="#AFAFAF">
            <g id="заявка" sketch:type="MSLayerGroup" transform="translate(54.000000, 4166.000000)">
                <g id="часы" transform="translate(398.000000, 288.000000)" sketch:type="MSShapeGroup">
                    <path d="M8.99912474,0.000608879493 C4.03679493,0.000608879493 0,4.03649049 0,8.99786892 C0,13.9598562 4.03679493,17.9960423 8.99912474,17.9960423 C13.9605032,17.9960423 17.9966892,13.9595518 17.9966892,8.99786892 C17.9966512,4.03649049 13.9605032,0.000608879493 8.99912474,0.000608879493 L8.99912474,0.000608879493 Z M8.99912474,16.668685 C4.76992389,16.668685 1.32861311,13.2273742 1.32861311,8.99817336 C1.32861311,4.76927696 4.76992389,1.32857505 8.99912474,1.32857505 C13.2280211,1.32857505 16.668723,4.7695814 16.668723,8.99817336 C16.668685,13.2273742 13.2279831,16.668685 8.99912474,16.668685 L8.99912474,16.668685 Z" id="Shape"></path>
                    <path d="M9.99817336,3.33482452 C9.63223679,3.33482452 9.33434249,3.63271882 9.33434249,3.99865539 L9.33434249,9.33434249 L4.6065074,9.33434249 C4.24026638,9.33434249 3.94267653,9.63254123 3.94267653,9.99908668 C3.94267653,10.3650233 4.24057082,10.6629175 4.6065074,10.6629175 L9.99817336,10.6629175 C10.3644144,10.6629175 10.6620042,10.3650233 10.6620042,9.99908668 L10.6620042,3.99865539 C10.6620042,3.63241438 10.3644144,3.33482452 9.99817336,3.33482452 L9.99817336,3.33482452 Z" id="Shape"></path>
                </g>
            </g>
        </g>
    </g>
</svg>