<?xml version="1.0" encoding="UTF-8" standalone="no"?>
<svg width="33px" height="34px" viewBox="0 0 33 34" version="1.1" xmlns="http://www.w3.org/2000/svg" xmlns:xlink="http://www.w3.org/1999/xlink" xmlns:sketch="http://www.bohemiancoding.com/sketch/ns">
    <!-- Generator: sketchtool 3.4 (356) - http://www.bohemiancoding.com/sketch -->
    <title>честность иконка</title>
    <desc>Created with sketchtool.</desc>
    <defs></defs>
    <g id="Page-1" stroke="none" stroke-width="1" fill="none" fill-rule="evenodd" sketch:type="MSPage">
        <g id="Главная-страница" sketch:type="MSArtboardGroup" transform="translate(-412.000000, -2842.000000)" fill="#5D5D5D">
            <g id="преимущества" sketch:type="MSLayerGroup" transform="translate(412.000000, 2646.000000)">
                <g id="Честность-+-Shape" transform="translate(0.000000, 196.000000)" sketch:type="MSShapeGroup">
                    <path d="M31.3745625,16.6143125 C30.270625,15.5635 28.747,15.3074375 27.401875,15.085375 C27.1904375,15.04925 26.981125,15.0141875 26.7760625,14.977 C26.624125,14.936625 26.43075,14.8930625 26.2341875,14.8463125 C24.4406875,14.4298125 23.173125,14.022875 23.168875,12.5545 C23.164625,11.587625 23.4844375,10.693 23.8201875,9.743125 C24.205875,8.6561875 24.605375,7.5299375 24.5426875,6.219875 C24.4205,3.8845 23.43025,1.853 21.8885625,0.782 C21.2744375,0.291125 20.4669375,0 19.696625,0 C18.5523125,0 17.6980625,0.622625 17.350625,1.706375 C17.10625,2.437375 17.1476875,3.1481875 17.19125,3.9004375 C17.19975,4.0853125 17.2135625,4.2755 17.2178125,4.473125 C17.261375,5.5090625 17.1370625,6.3654375 16.83425,7.174 C16.2605,8.7900625 15.1098125,10.295625 14.1705625,11.430375 L13.657375,12.0753125 C12.939125,12.981625 12.1975,13.91875 11.353875,14.671 C10.9395,14.99825 10.4975,15.11725 9.9290625,15.2394375 C9.768625,15.2500625 3.55271368e-15,15.34675 3.55271368e-15,15.34675 L3.55271368e-15,29.70325 C3.55271368e-15,29.70325 7.6616875,29.6936875 8.092,29.6681875 C8.47025,29.645875 8.8346875,29.624625 9.1683125,29.624625 L9.3234375,29.624625 C9.639,29.6915625 9.95775,29.7255625 10.2903125,29.76275 C10.5856875,29.7935625 10.8916875,29.8275625 11.2125625,29.888125 C11.57275,29.9571875 11.9456875,30.308875 12.3069375,30.651 C12.5151875,30.848625 12.72025,31.03775 12.9231875,31.18225 C13.130375,31.3278125 13.330125,31.473375 13.5351875,31.622125 C14.161,32.076875 14.8101875,32.55075 15.5454375,32.880125 C16.4528125,33.2700625 17.45475,33.398625 18.425875,33.5229375 C18.897625,33.585625 19.3661875,33.6419375 19.8145625,33.73225 C20.1078125,33.7651875 20.3606875,33.7949375 20.6156875,33.823625 C21.3743125,33.908625 22.1605625,34 22.9489375,34 C23.4801875,34 23.94875,33.9575 24.38225,33.8714375 C25.9345625,33.4305 26.9226875,32.1714375 26.92375,30.7264375 C27.712125,30.4119375 28.417625,29.7531875 28.863875,28.9095625 C29.2623125,28.1551875 29.3961875,27.3476875 29.2516875,26.632625 C30.7498125,25.653 31.524375,23.814875 31.1068125,22.2370625 C31.76875,21.78125 32.225625,21.0194375 32.382875,20.0908125 C32.6028125,18.80625 32.2065,17.4409375 31.3745625,16.6143125 L31.3745625,16.6143125 Z M30.3630625,19.4905 C30.3120625,19.9325 30.1101875,20.478625 29.437625,20.6008125 C29.0753125,20.7049375 28.8330625,20.916375 28.7161875,21.21175 C28.574875,21.5698125 28.6269375,22.0181875 28.859625,22.40175 C29.1029375,22.6896875 29.1411875,23.29425 28.9966875,23.8201875 C28.7990625,24.4449375 28.34325,24.888 27.63775,25.126 C27.3370625,25.1631875 27.0671875,25.3725 26.9195,25.6901875 C26.751625,26.0535625 26.7888125,26.445625 27.019375,26.717625 C27.219125,27.0045 27.180875,27.6494375 26.90675,28.1806875 C26.687875,28.600375 26.3765625,28.8521875 26.07375,28.8521875 C26.03125,28.8521875 25.98875,28.846875 25.9451875,28.83625 L25.897375,28.8266875 L25.8474375,28.8266875 C25.476625,28.8266875 24.9931875,28.9881875 24.7551875,29.359 C24.5979375,29.6023125 24.575625,29.896625 24.694625,30.17075 C24.8423125,30.5670625 24.826375,31.0196875 24.6425625,31.3225 C24.50975,31.5445625 24.2983125,31.673125 24.0114375,31.7103125 C23.5035625,31.84525 22.998875,31.84525 22.5090625,31.84525 C21.052375,31.7145625 19.5064375,31.57325 18.013625,31.3044375 L17.30175,31.144 C16.932,31.061125 16.5665,30.9814375 16.241375,30.899625 C15.7069375,30.636125 15.10875,30.1845625 14.5318125,29.7468125 C14.3395,29.6023125 14.1525,29.458875 13.967625,29.3260625 C13.8326875,29.21875 13.6860625,29.080625 13.5373125,28.940375 C13.1569375,28.583375 12.730875,28.1806875 12.199625,28.0340625 C11.70025,27.7259375 11.1679375,27.7259375 10.7365625,27.7259375 C9.3446875,27.597375 8.6880625,27.09375 8.349125,25.8750625 C8.0155,24.6468125 8.0038125,23.24325 8.0229375,22.02775 L8.0271875,21.75575 C8.0378125,20.610375 8.055875,19.1770625 8.6434375,18.136875 C8.935625,17.6406875 9.517875,17.5355 10.1925625,17.405875 C11.1254375,17.2539375 11.859625,16.946875 12.546,16.419875 C12.6426875,16.3848125 12.743625,16.3125625 12.818,16.1765625 C13.0974375,15.9853125 13.325875,15.705875 13.534125,15.4540625 C14.639125,14.2555625 15.654875,13.0039375 16.453875,11.8543125 C16.6398125,11.5780625 16.8268125,11.3124375 17.010625,11.0489375 C17.8595625,9.8355625 18.7393125,8.58075 19.1133125,7.0348125 C19.3789375,5.896875 19.3534375,4.9119375 19.2939375,3.74425 L19.2854375,3.57 C19.23975,2.8591875 19.229125,2.0941875 19.6296875,2.037875 C19.6573125,2.033625 19.6913125,2.029375 19.7231875,2.029375 C20.3734375,2.029375 21.19475,2.849625 21.6824375,3.6093125 C22.191375,4.5740625 22.457,5.5845 22.429375,6.4993125 C22.4028125,7.4491875 22.093625,8.3480625 21.7653125,9.301125 C21.3785625,10.4263125 20.978,11.591875 21.0704375,12.8594375 C21.20325,14.586 22.573875,16.0788125 24.4810625,16.5739375 C25.0378125,16.7184375 25.629625,16.815125 26.2001875,16.9075625 C27.2648125,17.08075 28.3645,17.2603125 29.263375,17.7639375 C29.8488125,18.05825 30.4735625,18.6776875 30.3630625,19.4905 L30.3630625,19.4905 Z" id="честность-иконка"></path>
                </g>
            </g>
        </g>
    </g>
</svg>