<?xml version="1.0" encoding="UTF-8" standalone="no"?>
<svg width="33px" height="34px" viewBox="0 0 33 34" version="1.1" xmlns="http://www.w3.org/2000/svg" xmlns:xlink="http://www.w3.org/1999/xlink" xmlns:sketch="http://www.bohemiancoding.com/sketch/ns">
    <!-- Generator: sketchtool 3.4 (356) - http://www.bohemiancoding.com/sketch -->
    <title>Shape</title>
    <desc>Created with sketchtool.</desc>
    <defs></defs>
    <g id="Page-1" stroke="none" stroke-width="1" fill="none" fill-rule="evenodd" sketch:type="MSPage">
        <g id="Главная-страница" sketch:type="MSArtboardGroup" transform="translate(-705.000000, -2842.000000)" fill="#686868">
            <g id="преимущества" sketch:type="MSLayerGroup" transform="translate(412.000000, 2646.000000)">
                <g id="Качество-+-Shape" transform="translate(293.000000, 196.000000)" sketch:type="MSShapeGroup">
                    <path d="M32.3677275,12.9174609 C31.8702895,11.2175341 29.1323669,10.8264297 26.2333309,10.4066811 C24.6443489,10.1808321 22.8388708,9.91862691 22.2941057,9.47904765 C21.7473268,9.04277349 20.9800237,7.23708322 20.303347,5.64291981 C19.0728426,2.74323903 17.9108115,0.00881361938 16.2795373,0 L16.2483215,0 C14.6331587,0.0297459654 13.4560232,2.73112031 12.2043726,5.59885171 C11.5156124,7.1842015 10.731191,8.98107815 10.1844121,9.4118438 C9.63058443,9.84701626 7.82510624,10.0893908 6.23108953,10.3009177 C3.3330604,10.6865135 0.592116938,11.0478719 0.0805815675,12.7389851 C-0.429946844,14.4345051 1.56987451,16.5134176 3.6925449,18.7146191 C4.855583,19.9242883 6.1746998,21.2926027 6.38112647,21.9976923 C6.58755315,22.7027818 6.23713128,24.6594053 5.93101563,26.3813662 C5.36812533,29.5146079 4.83745773,32.4814925 6.15153973,33.5402286 C6.46571106,33.7881116 6.8614461,33.912604 7.3276683,33.901587 C8.66692429,33.8762478 10.5952515,32.7370875 12.4591334,31.6309783 C13.855786,30.7936844 15.4387262,29.8539323 16.1466186,29.8429152 C16.8273232,29.8451186 18.4163051,30.8135151 19.8179926,31.665131 C21.7241667,32.8252237 23.6968002,34.0238759 25.0380701,33.9996385 C25.4569652,33.9908249 25.8144358,33.8729427 26.106454,33.6448903 C27.4275847,32.6037815 26.9261189,29.6379986 26.3934374,26.4926382 C26.1024261,24.7673722 25.7741574,22.8085453 25.982598,22.1034557 C26.1950664,21.4016713 27.5282806,20.0465773 28.7023953,18.8479251 C30.841177,16.6698594 32.8611376,14.6173877 32.3677275,12.9174609 L32.3677275,12.9174609 Z M25.2596011,18.3378368 C24.4097274,19.2048766 23.4440534,20.1886969 23.2889816,20.6965817 C23.1379377,21.2088733 23.3755801,22.6267644 23.5880485,23.8749932 C23.9717001,26.1533138 24.3372263,28.3016335 23.3796079,29.0540963 C23.1691534,29.2193517 22.9093579,29.3063862 22.6082771,29.3118947 C21.6325334,29.3295219 20.204665,28.4602787 18.8241237,27.6229849 C17.8091086,27.0038281 16.659161,26.3042471 16.1647439,26.3020436 C15.6552225,26.3108573 14.5072888,26.9906077 13.4963015,27.5954423 C12.1469759,28.39638 10.7503233,29.2226568 9.7776005,29.2413857 C9.4402691,29.2479959 9.1552996,29.1598597 8.92671981,28.9813839 C7.97715711,28.2112939 8.36080864,26.0640759 8.76560631,23.7956706 C8.99015826,22.5474418 9.24290506,21.1317542 9.09186115,20.6194625 C8.94484508,20.1093743 7.98823366,19.1178421 7.14641561,18.2419887 C5.60979558,16.6500287 4.16078102,15.1451032 4.53033511,13.916705 C4.90089617,12.6905102 6.88662009,12.4294067 8.98512346,12.1484726 C10.1390989,11.9975394 11.4481461,11.821267 11.846902,11.5072818 C12.2426371,11.1932966 12.8105622,9.89328776 13.312028,8.74421213 C14.2162775,6.66750306 15.0701791,4.70977786 16.238252,4.68994721 L16.2593981,4.68994721 C17.4435823,4.69435402 18.2854004,6.67411328 19.1755525,8.7739581 C19.6649348,9.92964394 20.2197694,11.2351613 20.6175183,11.5535533 C21.0112395,11.8697419 22.3202867,12.0592347 23.4692273,12.2244901 C25.5717585,12.5252548 27.5524477,12.8094941 27.9119322,14.0422991 C28.2714167,15.2729007 26.8103186,16.760199 25.2596011,18.3378368 L25.2596011,18.3378368 Z" id="Shape"></path>
                </g>
            </g>
        </g>
    </g>
</svg>