<?xml version="1.0" encoding="UTF-8" standalone="no"?>
<svg width="20px" height="20px" viewBox="0 0 20 20" version="1.1" xmlns="http://www.w3.org/2000/svg" xmlns:xlink="http://www.w3.org/1999/xlink" xmlns:sketch="http://www.bohemiancoding.com/sketch/ns">
    <!-- Generator: sketchtool 3.4 (356) - http://www.bohemiancoding.com/sketch -->
    <title>telephone46-2</title>
    <desc>Created with sketchtool.</desc>
    <defs></defs>
    <g id="Page-1" stroke="none" stroke-width="1" fill="none" fill-rule="evenodd" sketch:type="MSPage">
        <g id="Главная-страница" sketch:type="MSArtboardGroup" transform="translate(-449.000000, -4363.000000)">
            <g id="заявка" sketch:type="MSLayerGroup" transform="translate(54.000000, 4166.000000)">
                <g id="telephone46-2" transform="translate(396.000000, 198.000000)" sketch:type="MSShapeGroup">
                    <path d="M17.5498968,14.228431 L14.7774327,11.4476897 C14.2252092,10.8961034 13.3107163,10.9128621 12.739255,11.4861724 L11.3424756,12.8866552 C11.2542292,12.8378793 11.1628883,12.786931 11.0668539,12.7328793 C10.1848023,12.2427414 8.97756447,11.5709483 7.70719771,10.296 C6.4330659,9.01836207 5.7625788,7.8057931 5.27234957,6.92063793 C5.22061891,6.82686207 5.17105444,6.73644828 5.12210888,6.65058621 L6.05955301,5.71184483 L6.52043553,5.24906897 C7.09277364,4.67493103 7.10855587,3.75806897 6.55762178,3.20487931 L3.78515759,0.423827586 C3.2342235,-0.128586207 2.31931805,-0.111827586 1.74697994,0.462310345 L0.965604585,1.25043103 L0.98695702,1.27168966 C0.724951289,1.60696552 0.506011461,1.99365517 0.343083095,2.41065517 C0.192893983,2.80758621 0.0993868195,3.18636207 0.0566303725,3.56591379 C-0.309455587,6.60956897 1.0774212,9.39124138 4.84122636,13.1659138 C10.0439484,18.3832241 14.236659,17.9890862 14.4175358,17.9698448 C14.8114728,17.9226207 15.1890086,17.8282241 15.5726819,17.6787931 C15.9848768,17.5173103 16.3702006,17.2980517 16.7043095,17.0358621 L16.7213811,17.051069 L17.5129685,16.2737069 C18.0841203,15.6996724 18.1005731,14.7825 17.5498968,14.228431 L17.5498968,14.228431 Z" id="Shape" stroke="#B8B8B8" fill="#FFFFFF"></path>
                    <g id="email27" transform="translate(8.000000, 1.000000)" fill="#B8B8B8">
                        <path d="M8.75,0 L1.25,0 C0.5596875,0 0,0.5596875 0,1.25 L0,6.25 C0,6.9403125 0.5596875,7.5 1.25,7.5 L8.75,7.5 C9.4403125,7.5 10,6.9403125 10,6.25 L10,1.25 C10,0.5596875 9.4403125,0 8.75,0 L8.75,0 Z M6.6925,3.33556641 L9.33837891,1.06810547 C9.35669922,1.12669922 9.375,1.18529297 9.375,1.25 L9.375,6.25 C9.375,6.29333984 9.35851562,6.33179688 9.34998047,6.37267578 L6.6925,3.33556641 L6.6925,3.33556641 Z M8.75,0.625 C8.79150391,0.625 8.828125,0.640878906 8.8671875,0.648808594 L5,3.96363281 L1.1328125,0.648808594 C1.171875,0.640878906 1.20849609,0.625 1.25,0.625 L8.75,0.625 L8.75,0.625 Z M0.649726562,6.37207031 C0.641171875,6.33117187 0.625,6.29333984 0.625,6.25 L0.625,1.25 C0.625,1.18529297 0.643613281,1.12669922 0.661933594,1.06810547 L3.30689453,3.33496094 L0.649726562,6.37207031 L0.649726562,6.37207031 Z M1.25,6.875 C1.18683594,6.875 1.12945312,6.85667969 1.07177734,6.83898438 L3.78173828,3.74205078 L4.79675781,4.61179688 C4.85503906,4.66248047 4.92767578,4.6875 5,4.6875 C5.07232422,4.6875 5.14496094,4.66248047 5.20324219,4.61181641 L6.21826172,3.74207031 L8.92822266,6.83900391 C8.87085938,6.85667969 8.81347656,6.875 8.75,6.875 L1.25,6.875 L1.25,6.875 Z" id="Shape"></path>
                    </g>
                </g>
            </g>
        </g>
    </g>
</svg>