<?xml version="1.0" encoding="UTF-8" standalone="no"?>
<svg width="12px" height="12px" viewBox="0 0 12 12" version="1.1" xmlns="http://www.w3.org/2000/svg" xmlns:xlink="http://www.w3.org/1999/xlink" xmlns:sketch="http://www.bohemiancoding.com/sketch/ns">
    <!-- Generator: sketchtool 3.4 (356) - http://www.bohemiancoding.com/sketch -->
    <title>иконка поиск</title>
    <desc>Created with sketchtool.</desc>
    <defs></defs>
    <g id="Page-1" stroke="none" stroke-width="1" fill="none" fill-rule="evenodd" sketch:type="MSPage">
        <g id="Главная-страница" sketch:type="MSArtboardGroup" transform="translate(-435.000000, -41.000000)">
            <g id="поиск" sketch:type="MSLayerGroup" transform="translate(430.000000, 33.000000)">
                <g id="поле-ввода" sketch:type="MSShapeGroup">
                    <g id="иконка-поиск" transform="translate(5.000000, 8.000000)">
                        <path d="M8.39237681,1.43817391 C6.47518841,-0.479391304 3.35544928,-0.479391304 1.438,1.43817391 C-0.479333333,3.35544928 -0.479333333,6.47510145 1.438,8.39226087 C3.28962319,10.243971 6.26228986,10.3070145 8.19081159,8.58246377 L8.58066667,8.97231884 C8.48353623,9.22095652 8.5344058,9.51371014 8.73501449,9.71446377 L10.7922029,11.7716522 C11.0627536,12.0422029 11.5013333,12.042058 11.7715942,11.7716522 C12.0421449,11.5012464 12.0421449,11.0626667 11.7715942,10.7921159 L9.71457971,8.73533333 C9.5137971,8.53457971 9.22081159,8.48371014 8.97243478,8.58084058 L8.58257971,8.19084058 C10.3073623,6.26217391 10.244058,3.28956522 8.39237681,1.43817391 L8.39237681,1.43817391 Z M2.02573913,7.80489855 C0.432434783,6.2115942 0.432434783,3.61913043 2.02573913,2.02582609 C3.61904348,0.432376812 6.21156522,0.432521739 7.80486957,2.02582609 C9.39817391,3.61913043 9.39817391,6.21171014 7.80486957,7.80501449 C6.21156522,9.39831884 3.61901449,9.39817391 2.02573913,7.80489855 L2.02573913,7.80489855 Z" id="Shape" fill="#949494"></path>
                        <path d="M2.1587737,5.44492303 C2.1587737,5.44492303 2.25302106,1.98172905 5.55141382,2.40399915" id="Path-178" stroke="#979797"></path>
                    </g>
                </g>
            </g>
        </g>
    </g>
</svg>