<?xml version="1.0" encoding="UTF-8" standalone="no"?>
<svg width="27px" height="28px" viewBox="0 0 27 28" version="1.1" xmlns="http://www.w3.org/2000/svg" xmlns:xlink="http://www.w3.org/1999/xlink" xmlns:sketch="http://www.bohemiancoding.com/sketch/ns">
    <!-- Generator: sketchtool 3.4 (356) - http://www.bohemiancoding.com/sketch -->
    <title>иконка тендеры</title>
    <desc>Created with sketchtool.</desc>
    <defs></defs>
    <g id="Page-1" stroke="none" stroke-width="1" fill="none" fill-rule="evenodd" sketch:type="MSPage">
        <g id="Главная-страница" sketch:type="MSArtboardGroup" transform="translate(-997.000000, -2753.000000)" fill="#737373">
            <g id="преимущества" sketch:type="MSLayerGroup" transform="translate(412.000000, 2646.000000)">
                <g id="Работаем-с-тендерами-+-иконка-тендеры" transform="translate(585.000000, 106.000000)" sketch:type="MSShapeGroup">
                    <g id="иконка-тендеры" transform="translate(0.000000, 1.000000)">
                        <path d="M15.0499149,4.82042169 L5.84578723,4.82042169 C5.16791489,4.82042169 4.61814894,5.37170557 4.61814894,6.05087349 C4.61814894,6.73004142 5.16791489,7.2813253 5.84578723,7.2813253 L15.0499149,7.2813253 C15.7289362,7.2813253 16.2775532,6.73004142 16.2775532,6.05087349 C16.2769787,5.37170557 15.7283617,4.82042169 15.0499149,4.82042169 L15.0499149,4.82042169 Z" id="Shape"></path>
                        <path d="M16.2769787,10.6656438 C16.2769787,9.98589985 15.7283617,9.43519202 15.0493404,9.43519202 L5.84578723,9.43519202 C5.16791489,9.43519202 4.61814894,9.9864759 4.61814894,10.6656438 C4.61814894,11.3453878 5.16791489,11.8966717 5.84578723,11.8966717 L15.0499149,11.8966717 C15.7283617,11.8966717 16.2769787,11.3453878 16.2769787,10.6656438 L16.2769787,10.6656438 Z" id="Shape"></path>
                        <path d="M10.4484255,16.511442 C11.1262979,16.511442 11.6754894,15.9601581 11.6754894,15.2809902 C11.6754894,14.6012462 11.1262979,14.0499623 10.4484255,14.0499623 L5.84578723,14.0499623 C5.16791489,14.0499623 4.61814894,14.6012462 4.61814894,15.2809902 C4.61814894,15.9607342 5.16791489,16.511442 5.84578723,16.511442 L10.4484255,16.511442 L10.4484255,16.511442 Z" id="Shape"></path>
                        <path d="M19.7122979,20.697628 L18.4249149,21.5496122 L18.4249149,24.6130685 L2.47078723,24.6130685 L2.47078723,2.46147967 L18.4249149,2.46147967 L18.4249149,7.32452937 L20.879617,3.06115211 L20.879617,1.23045181 C20.879617,0.550707831 20.3298511,0 19.6519787,0 L1.24314894,0 C0.565276596,0 0.0160851064,0.551283886 0.0160851064,1.23045181 L0.0160851064,25.8446724 C0.0160851064,26.5244164 0.565276596,27.0751242 1.24314894,27.0751242 L19.6519787,27.0751242 C20.3304255,27.0751242 20.8801915,26.5238404 20.8801915,25.8446724 L20.8801915,19.061634 L20.2936596,20.0789458 C20.150617,20.3272252 19.9495532,20.5409413 19.7122979,20.697628 L19.7122979,20.697628 Z" id="Shape"></path>
                        <path d="M26.9695532,5.69948042 C26.9442766,5.58887801 26.6851915,4.59460843 25.1237872,3.69020331 C23.562383,2.78637425 22.5742979,3.05827184 22.4651489,3.09225904 C22.3186596,3.13891943 22.1951489,3.23800075 22.1181702,3.37164533 L14.4478723,16.6934752 C14.4001915,16.777003 14.3720426,16.8697477 14.3662979,16.9653727 L14.0790638,21.7725452 C14.0652766,22.0052711 14.183617,22.2253238 14.3841064,22.3422628 C14.5863191,22.4586258 14.8350638,22.450561 15.029234,22.323253 L19.0372979,19.6699473 C19.1171489,19.6181024 19.1832128,19.5472477 19.2308936,19.464872 L26.901766,6.14073795 C26.9787447,6.00709337 27.0022979,5.85040663 26.9695532,5.69948042 L26.9695532,5.69948042 Z M16.5757021,20.1935806 C16.371766,20.028253 16.1402553,19.8721423 15.8915106,19.7275527 C15.641617,19.5829631 15.3911489,19.4614157 15.1464255,19.3657907 L15.2320213,17.924503 C15.552,17.966555 16.0265106,18.0967432 16.6291277,18.44468 C17.2311702,18.7931928 17.5798723,19.1411295 17.7774894,19.3974736 L16.5757021,20.1935806 L16.5757021,20.1935806 Z" id="Shape"></path>
                        <path d="M8.57221277,22.1976732 C8.61242553,22.4448005 8.89678723,22.5214157 9.08693617,22.6009111 C9.27076596,22.6786785 9.49021277,22.5312086 9.64302128,22.4568976 C10.5794043,22.0000866 11.8478298,22.5369691 12.8508511,22.5369691 C13.4442766,22.5369691 13.4442766,21.6141303 12.8508511,21.6141303 C11.681234,21.6141303 10.7080851,21.3174623 9.54880851,21.5092884 C9.54880851,21.4418901 9.52410638,21.3508735 9.4517234,21.2270218 C9.23514894,20.8554669 8.95940426,20.7500489 8.68308511,20.7949812 C8.66470213,20.7512011 8.64689362,20.7074209 8.62104255,20.6630648 C8.54865957,20.5443976 8.44755319,20.485064 8.33380851,20.4602937 C8.65723404,19.8934563 8.86576596,19.2937839 8.65378723,18.8087462 C8.58887234,18.6612764 8.40446809,18.5858133 8.25625532,18.5800527 C7.64157447,18.5570105 7.11421277,19.2039194 6.71897872,19.59218 C5.73031915,20.5639834 4.85942553,21.6671273 4.01668085,22.7650866 C3.65476596,23.236875 4.455,23.6954142 4.81117021,23.2316905 C5.55797872,22.259311 6.34902128,21.3151581 7.20038298,20.432067 C6.99529787,20.7696348 6.77757447,21.100866 6.5483617,21.42 C6.22091489,21.9275038 7.00276596,22.3595444 7.34285106,21.8860279 C7.42385106,21.7621762 7.52668085,21.6728878 7.6392766,21.5962726 C7.61687234,21.653302 7.59389362,21.7091792 7.57091489,21.7667846 C7.57206383,21.7667846 7.57321277,21.7673607 7.5743617,21.7679367 C7.55655319,21.8048042 7.53874468,21.8416717 7.52438298,21.876811 C7.3187234,22.3935316 8.08678723,22.6302899 8.36597872,22.2316604 C8.4366383,22.131427 8.50212766,22.0242809 8.56129787,21.9119503 C8.5572766,21.9891416 8.55555319,22.0928313 8.57221277,22.1976732 L8.57221277,22.1976732 Z" id="Shape"></path>
                    </g>
                </g>
            </g>
        </g>
    </g>
</svg>