<?xml version="1.0" encoding="UTF-8" standalone="no"?>
<svg width="38px" height="36px" viewBox="0 0 38 36" version="1.1" xmlns="http://www.w3.org/2000/svg" xmlns:xlink="http://www.w3.org/1999/xlink" xmlns:sketch="http://www.bohemiancoding.com/sketch/ns">
    <!-- Generator: sketchtool 3.4 (356) - http://www.bohemiancoding.com/sketch -->
    <title>иконка расчет</title>
    <desc>Created with sketchtool.</desc>
    <defs></defs>
    <g id="Page-1" stroke="none" stroke-width="1" fill="none" fill-rule="evenodd" sketch:type="MSPage">
        <g id="Главная-страница" sketch:type="MSArtboardGroup" transform="translate(-705.000000, -2752.000000)" fill="#686868">
            <g id="преимущества" sketch:type="MSLayerGroup" transform="translate(412.000000, 2646.000000)">
                <g id="иконка-расчет" transform="translate(293.000000, 106.000000)" sketch:type="MSShapeGroup">
                    <g id="Shape">
                        <path d="M31.2130706,0.0573557272 L6.11535226,0.0573557272 C2.74302871,0.0573557272 0,2.80064007 0,6.17267887 C0,9.54541149 2.74310579,12.28885 6.11535226,12.28885 L6.18341538,12.28885 L6.18341538,31.5201329 C6.18341538,32.0195286 6.37766122,32.4883191 6.73030991,32.8407793 L8.60701761,34.7190252 C9.15599334,35.2584311 10.0892213,35.265061 10.6502988,34.7110077 L11.8212466,33.5386844 L13.0006734,34.7190252 C13.5498033,35.2571206 14.4828771,35.2657548 15.0441088,34.7117015 L16.2162128,33.5386844 L17.3961792,34.7190252 C17.9439987,35.2571206 18.8780745,35.2657548 19.439075,34.7117015 L20.6117186,33.5386844 L21.9053805,34.8344305 C22.4530458,35.372603 23.3875841,35.3799266 23.9486617,34.8271068 L25.2376216,33.5386844 L26.5385291,34.8393643 C26.8081608,35.1139625 27.1836257,35.2711512 27.5685716,35.2711512 C27.9526696,35.2711512 28.314491,35.1229822 28.5952225,34.8464567 L30.5984983,32.8407793 C30.9506845,32.4883191 31.1449304,32.0194515 31.1449304,31.5201329 L31.1449304,12.2887729 L31.2130706,12.2887729 C34.585317,12.2887729 37.3283458,9.5453344 37.3283458,6.17260178 C37.3283458,2.80064007 34.58524,0.0573557272 31.2130706,0.0573557272 L31.2130706,0.0573557272 Z M28.6571962,31.263651 L27.7685986,32.1534357 C27.7158747,32.206243 27.64442,32.235846 27.569882,32.235846 C27.4952669,32.235846 27.4237351,32.2061659 27.3710883,32.1535128 L26.2555623,31.0371575 C25.9822306,30.7680328 25.6200238,30.6197867 25.2363112,30.6197867 C24.8499778,30.6197867 24.4870002,30.7705768 24.2135144,31.0444041 L23.1221919,32.1347796 C23.069468,32.1874328 22.9980133,32.2170358 22.9234753,32.2169587 C22.8489374,32.2169587 22.7774056,32.1872786 22.7248358,32.1344713 L21.6297364,31.0370805 C21.0828419,30.4996018 20.1488431,30.4922781 19.5877656,31.0444041 L18.6129136,32.0188347 C18.5032263,32.1285353 18.3253989,32.1284582 18.2157117,32.0187576 L17.2343848,31.0371575 C16.6879527,30.4996789 15.753954,30.4923552 15.1923369,31.0444812 L14.2175619,32.0188347 C14.1648381,32.0714879 14.0933833,32.1010909 14.0188454,32.1010909 C13.9443074,32.1010909 13.8728527,32.0714108 13.8202059,32.0187576 L12.8393415,31.0372346 C12.2916761,30.499756 11.3584482,30.4918156 10.7959832,31.045175 L9.82259572,32.0186806 C9.76987185,32.0714108 9.69841713,32.1010138 9.62387914,32.1010138 C9.54934116,32.1010138 9.47780936,32.0713337 9.42516257,32.0186035 L8.67130373,31.2637281 L8.67130373,8.1167605 L28.6572733,8.1167605 L28.6571962,31.263651 L28.6571962,31.263651 L28.6571962,31.263651 Z M31.2130706,8.55648774 L31.1449304,8.55648774 L31.1449304,7.80793383 C31.1449304,6.60662429 30.1683055,5.62849328 28.9655229,5.62849328 L8.36282284,5.62849328 C7.16135067,5.62849328 6.18341538,6.60593047 6.18341538,7.80754837 L6.18341538,8.55648774 L6.11535226,8.55648774 C4.80103251,8.55648774 3.73183251,7.48731223 3.73183251,6.17267887 C3.73183251,4.85889352 4.8011096,3.789718 6.11535226,3.789718 L31.2130706,3.789718 C32.5273132,3.789718 33.5965132,4.85889352 33.5965132,6.17267887 C33.5965132,7.48731223 32.5273132,8.55648774 31.2130706,8.55648774 L31.2130706,8.55648774 Z"></path>
                        <path d="M12.2794201,13.7279083 L19.5877656,13.7279083 C20.2750259,13.7279083 20.8314014,13.1708485 20.8314014,12.4836591 C20.8314014,11.7967009 20.2750259,11.2396411 19.5877656,11.2396411 L12.2794201,11.2396411 C11.5916974,11.2396411 11.0353218,11.7967009 11.0353218,12.4836591 C11.0353218,13.1708485 11.5916974,13.7279083 12.2794201,13.7279083 L12.2794201,13.7279083 Z"></path>
                        <path d="M12.2794201,18.7042885 L24.5632339,18.7042885 C25.2508796,18.7042885 25.8073323,18.1471517 25.8073323,17.4601935 C25.8073323,16.7730811 25.2508796,16.2159442 24.5632339,16.2159442 L12.2794201,16.2159442 C11.5916974,16.2159442 11.0353218,16.7730811 11.0353218,17.4601935 C11.0353218,18.1471517 11.5916974,18.7042885 12.2794201,18.7042885 L12.2794201,18.7042885 Z"></path>
                        <path d="M12.2794201,23.6805917 L24.5632339,23.6805917 C25.2508796,23.6805917 25.8073323,23.1237632 25.8073323,22.4365737 C25.8073323,21.7493843 25.2508796,21.1925558 24.5632339,21.1925558 L12.2794201,21.1925558 C11.5916974,21.1925558 11.0353218,21.7493843 11.0353218,22.4365737 C11.0353218,23.1237632 11.5916974,23.6805917 12.2794201,23.6805917 L12.2794201,23.6805917 Z"></path>
                    </g>
                </g>
            </g>
        </g>
    </g>
</svg>