<?xml version="1.0" encoding="UTF-8" standalone="no"?>
<svg width="14px" height="14px" viewBox="0 0 14 14" version="1.1" xmlns="http://www.w3.org/2000/svg" xmlns:xlink="http://www.w3.org/1999/xlink" xmlns:sketch="http://www.bohemiancoding.com/sketch/ns">
    <!-- Generator: sketchtool 3.4 (356) - http://www.bohemiancoding.com/sketch -->
    <title>часы иконка</title>
    <desc>Created with sketchtool.</desc>
    <defs></defs>
    <g id="Page-1" stroke="none" stroke-width="1" fill="none" fill-rule="evenodd" sketch:type="MSPage">
        <g id="Главная-страница" sketch:type="MSArtboardGroup" transform="translate(-191.000000, -13.000000)" fill="#C7C7C7">
            <g id="шапка-1" sketch:type="MSLayerGroup">
                <g id="время-работы" transform="translate(191.000000, 13.000000)" sketch:type="MSShapeGroup">
                    <g id="часы-иконка">
                        <path d="M7,0 C3.14016316,0 0,3.14016316 0,7 C0,10.8598368 3.14016316,14 7,14 C10.8598368,14 14,10.8598368 14,7 C14,3.14016316 10.8598368,0 7,0 L7,0 Z M7,12.5263158 C3.95278947,12.5263158 1.47368421,10.0472105 1.47368421,7 C1.47368421,3.95278947 3.95278947,1.47368421 7,1.47368421 C10.0472105,1.47368421 12.5263158,3.95278947 12.5263158,7 C12.5263158,10.0472105 10.0472105,12.5263158 7,12.5263158 L7,12.5263158 Z" id="Shape"></path>
                        <path d="M10.7576368,6.78381053 L8.02406316,6.78381053 C7.92473684,6.62196316 7.78816316,6.48538947 7.62631579,6.38606316 L7.62631579,3.09985789 C7.62631579,2.75394737 7.34591053,2.47354211 7,2.47354211 C6.65408947,2.47354211 6.37368421,2.75394737 6.37368421,3.09985789 L6.37368421,6.38606316 C6.02939474,6.59742632 5.79920526,6.97737895 5.79920526,7.41012632 C5.79920526,8.07225263 6.33791053,8.61092105 7,8.61092105 C7.43274737,8.61092105 7.8127,8.38073158 8.02406316,8.03644211 L10.7576368,8.03644211 C11.1035474,8.03644211 11.3839526,7.75603684 11.3839526,7.41012632 C11.3839526,7.06421579 11.1035474,6.78381053 10.7576368,6.78381053 L10.7576368,6.78381053 Z" id="Shape"></path>
                    </g>
                </g>
            </g>
        </g>
    </g>
</svg>