<?xml version="1.0" encoding="UTF-8" standalone="no"?>
<svg width="22px" height="34px" viewBox="0 0 22 34" version="1.1" xmlns="http://www.w3.org/2000/svg" xmlns:xlink="http://www.w3.org/1999/xlink" xmlns:sketch="http://www.bohemiancoding.com/sketch/ns">
    <!-- Generator: sketchtool 3.4 (356) - http://www.bohemiancoding.com/sketch -->
    <title>Icons_34_</title>
    <desc>Created with sketchtool.</desc>
    <defs></defs>
    <g id="Page-1" stroke="none" stroke-width="1" fill="none" fill-rule="evenodd" sketch:type="MSPage">
        <g id="Главная-страница" sketch:type="MSArtboardGroup" transform="translate(-997.000000, -2842.000000)" fill="#737373">
            <g id="преимущества" sketch:type="MSLayerGroup" transform="translate(412.000000, 2646.000000)">
                <g id="Гарантия-5-лет-+-Icons_34_" transform="translate(585.000000, 196.000000)" sketch:type="MSShapeGroup">
                    <g id="Icons_34_">
                        <g id="Group">
                            <path d="M21.9613962,31.0720848 L17.932283,19.7100404 C17.5133145,19.840202 17.0802327,19.9310747 16.6295094,19.9310747 C16.3695912,19.9310747 16.1129245,19.9086141 15.8597862,19.8632808 C15.5609874,20.7951556 14.9570252,21.5890384 14.1570692,22.1282303 L12.3168868,27.3147071 L14.5667673,33.6566343 C14.6282704,33.8270465 14.789327,33.9417535 14.9723145,33.9421657 C15.153434,33.943402 15.3155975,33.8309616 15.3789686,33.661099 L16.9013962,29.5150222 C16.9447736,29.3948202 17.0404528,29.3005818 17.1613145,29.258202 C17.2834214,29.2155475 17.4179811,29.2294909 17.5278428,29.295499 L21.3318365,31.5802303 C21.4885346,31.6728889 21.6861195,31.6597697 21.8271132,31.5456808 C21.9681069,31.4315232 22.0215849,31.2422909 21.9613962,31.0720848 L21.9613962,31.0720848 Z" id="Shape"></path>
                            <path d="M6.00731447,21.9898949 C5.26989937,21.9898949 4.53808805,21.8024485 3.89275472,21.4478869 C3.83055975,21.4136808 3.77625157,21.371301 3.71640881,21.334897 L1.2041195,28.4156889 C1.14386164,28.5855515 1.19865409,28.7751273 1.33957862,28.8892848 C1.41830818,28.9528202 1.51398742,28.9852404 1.61160377,28.9852404 C1.68839623,28.9852404 1.76484277,28.9649091 1.83374843,28.9234909 L5.63760377,26.6393778 C5.70650943,26.5985091 5.78413208,26.5776283 5.86196226,26.5776283 C5.90962893,26.5776283 5.95736478,26.5858707 6.00420126,26.6018747 C6.12499371,26.6443232 6.22184906,26.738699 6.26515723,26.858901 L7.78647799,31.0048404 C7.84860377,31.1740848 8.01083648,31.2860444 8.19195597,31.2860444 L8.19423899,31.2860444 C8.37618868,31.2848768 8.5371761,31.1707192 8.59861006,31.0005131 L11.4872516,22.8566545 C10.2600252,22.7978586 9.11837736,22.2453414 8.33959119,21.321297 C7.64672956,21.7561535 6.84158491,21.9898949 6.00731447,21.9898949 L6.00731447,21.9898949 Z" id="Shape"></path>
                            <path d="M19.106239,8.19173333 C18.6476289,8.05374141 18.2799245,7.71429091 18.1077987,7.27160404 C17.9365723,6.82871111 17.9798113,6.33210505 18.2263082,5.92513535 L18.2275535,5.92341818 C18.6976478,5.14945455 18.6110314,4.16311111 18.0132956,3.4816 C17.6058113,3.01741414 17.0247484,2.76705051 16.4306792,2.76705051 C16.1530503,2.76705051 15.8719623,2.82172525 15.6054025,2.93533333 C15.4101006,3.01858182 15.2022767,3.05986263 14.9956289,3.05986263 C14.7357107,3.05986263 14.4782138,2.99536566 14.2447925,2.86753939 C13.8274843,2.63805657 13.5385094,2.22902626 13.4652453,1.76037576 L13.464,1.75879596 C13.3230755,0.866210101 12.6179686,0.165947475 11.7190818,0.0254141414 C11.6092201,0.00824242424 11.5006038,0 11.3915031,0 C10.6108491,0 9.88242767,0.433826263 9.52143396,1.14294949 C9.30496226,1.56743434 8.90377358,1.8684202 8.43520126,1.95888081 C8.33647799,1.97825051 8.23761635,1.98738586 8.13875472,1.98738586 C7.76752201,1.98738586 7.40569811,1.85509495 7.12025157,1.60864646 C6.72812579,1.26974545 6.23596226,1.09541818 5.74075472,1.09541818 C5.36869182,1.09541818 4.99469182,1.19350303 4.6600566,1.39365657 C3.88050943,1.8595596 3.49315723,2.77151515 3.70056604,3.6531798 C3.80959748,4.11516768 3.69828302,4.60140202 3.39747799,4.97025051 C3.10206918,5.33236768 2.65888679,5.54131313 2.19107547,5.54131313 L2.16236478,5.54131313 C2.14901258,5.54131313 2.13559119,5.54090101 2.12258491,5.54090101 C1.2284717,5.54090101 0.430937107,6.10475152 0.138710692,6.94671515 C-0.156559748,7.8011798 0.136773585,8.74727273 0.865125786,9.28921212 L0.867408805,9.29099798 C1.2504717,9.57536162 1.47925786,10.0192162 1.48714465,10.4933616 C1.49620755,10.9675071 1.28395597,11.4195354 0.910716981,11.7189414 C0.202081761,12.2869131 -0.0554150943,13.2428283 0.270987421,14.0859596 C0.583207547,14.8929616 1.364,15.4200646 2.22808805,15.4200646 C2.26669182,15.4200646 2.30688679,15.419103 2.3457673,15.4167677 C2.37454717,15.4151879 2.40208176,15.4146384 2.43010063,15.4146384 C2.87771069,15.4146384 3.30415094,15.6065495 3.5993522,15.9429091 C3.91267925,16.3006303 4.03789937,16.8078141 3.9466478,17.2737172 C3.77293082,18.160396 4.19694969,19.0348485 4.99351572,19.4720404 C5.31120126,19.6467111 5.65967296,19.7315394 6.00724528,19.7315394 C6.5281195,19.7315394 7.04463522,19.5386667 7.44354088,19.1670707 C7.73327673,18.8974061 8.11198113,18.7507596 8.50293082,18.7507596 C8.58408176,18.7507596 8.66391824,18.7568727 8.74506918,18.7695111 C9.21710063,18.8428 9.62818239,19.1289495 9.85890566,19.5446424 L9.86008176,19.5461535 C10.2344969,20.2177051 10.9439623,20.6212404 11.6959057,20.6212404 C11.8293585,20.6212404 11.9636415,20.6085333 12.0979245,20.5827758 C12.9908616,20.408998 13.6696101,19.6835273 13.7786415,18.7858586 C13.8348868,18.3140485 14.1082264,17.8950586 14.5168176,17.6501212 C14.7613082,17.5041616 15.0376918,17.4297051 15.3168428,17.4297051 C15.5041887,17.4297051 15.6932642,17.4639111 15.8731384,17.5327354 L15.8750755,17.5333535 C16.1207421,17.6271798 16.3763019,17.6729253 16.6294403,17.6729253 C17.2490377,17.6729253 17.8534151,17.3989333 18.2596541,16.8999232 C18.8329686,16.1969131 18.8829182,15.2083717 18.3841824,14.4502061 C18.1219119,14.0526465 18.059717,13.5582384 18.215239,13.1095071 C18.3706918,12.6605697 18.7262893,12.3077939 19.1781887,12.154004 C20.0401321,11.8606424 20.6121321,11.0497253 20.5955975,10.1460121 C20.5786478,9.24236768 19.976761,8.45301818 19.106239,8.19173333 L19.106239,8.19173333 Z M10.3121195,16.6447515 C6.79391824,16.6447515 3.93059748,13.8030384 3.93059748,10.309899 C3.93059748,6.81655354 6.79398742,3.97449697 10.3121195,3.97449697 C13.8305975,3.97449697 16.6928113,6.81655354 16.6928113,10.309899 C16.6928113,13.8030384 13.8305975,16.6447515 10.3121195,16.6447515 L10.3121195,16.6447515 Z" id="Shape"></path>
                            <path d="M10.3121195,6.23278384 C8.04750314,6.23278384 6.20496855,8.06157172 6.20496855,10.309899 C6.20496855,12.5576768 8.04750314,14.3864646 10.3121195,14.3864646 C12.5767358,14.3864646 14.4180943,12.5576768 14.4180943,10.309899 C14.4180252,8.06157172 12.5767358,6.23278384 10.3121195,6.23278384 L10.3121195,6.23278384 Z" id="Shape"></path>
                        </g>
                        <path id="Shape"></path>
                    </g>
                </g>
            </g>
        </g>
    </g>
</svg>