<?xml version="1.0" encoding="UTF-8" standalone="no"?>
<svg width="19px" height="19px" viewBox="0 0 19 19" version="1.1" xmlns="http://www.w3.org/2000/svg" xmlns:xlink="http://www.w3.org/1999/xlink" xmlns:sketch="http://www.bohemiancoding.com/sketch/ns">
    <!-- Generator: sketchtool 3.4 (356) - http://www.bohemiancoding.com/sketch -->
    <title>юзер</title>
    <desc>Created with sketchtool.</desc>
    <defs></defs>
    <g id="Page-1" stroke="none" stroke-width="1" fill="none" fill-rule="evenodd" sketch:type="MSPage">
        <g id="Главная-страница" sketch:type="MSArtboardGroup" transform="translate(-454.000000, -4272.000000)" fill="#C0C0C0">
            <g id="заявка" sketch:type="MSLayerGroup" transform="translate(54.000000, 4166.000000)">
                <g id="юзер" transform="translate(400.000000, 106.000000)" sketch:type="MSShapeGroup">
                    <path d="M9.5,13.0625 C12.4467813,13.0625 14.84375,10.13175 14.84375,6.53125 C14.84375,2.93075 12.4461875,0 9.5,0 C8.04709375,0 6.6891875,0.6970625 5.6774375,1.96234375 C4.69596875,3.1884375 4.15625,4.81175 4.15625,6.53184375 C4.15625,10.13175 6.55321875,13.0625 9.5,13.0625 L9.5,13.0625 Z M9.5,1.18809375 C11.7912813,1.18809375 13.65625,3.5850625 13.65625,6.53184375 C13.65625,9.47803125 11.7912813,11.8755937 9.5,11.8755937 C7.20871875,11.8755937 5.34375,9.47803125 5.34315625,6.53184375 C5.34315625,3.5850625 7.208125,1.18809375 9.5,1.18809375 L9.5,1.18809375 Z M13.65625,11.875 C13.3279062,11.875 13.0625,12.1404062 13.0625,12.46875 C13.0625,12.7970938 13.3279062,13.0625 13.65625,13.0625 C15.9475313,13.0625 17.8125,14.9274687 17.8125,17.21875 C17.8125,17.5459062 17.5459062,17.8125 17.21875,17.8125 L1.78125,17.8125 C1.45409375,17.8125 1.1875,17.5459062 1.1875,17.21875 C1.1875,14.9274687 3.05246875,13.0625 5.34375,13.0625 C5.67209375,13.0625 5.9375,12.7970938 5.9375,12.46875 C5.9375,12.1404062 5.67209375,11.875 5.34375,11.875 C2.39696875,11.875 0,14.2719687 0,17.21875 C0,18.2008125 0.7991875,19 1.78125,19 L17.21875,19 C18.2008125,19 19,18.2008125 19,17.21875 C19,14.2725625 16.6030313,11.875 13.65625,11.875 L13.65625,11.875 Z" id="Shape"></path>
                </g>
            </g>
        </g>
    </g>
</svg>