<?xml version="1.0" encoding="UTF-8" standalone="no"?>
<svg width="22px" height="16px" viewBox="0 0 22 16" version="1.1" xmlns="http://www.w3.org/2000/svg" xmlns:xlink="http://www.w3.org/1999/xlink" xmlns:sketch="http://www.bohemiancoding.com/sketch/ns">
    <!-- Generator: sketchtool 3.4 (356) - http://www.bohemiancoding.com/sketch -->
    <title>мыло иконка</title>
    <desc>Created with sketchtool.</desc>
    <defs></defs>
    <g id="Page-1" stroke="none" stroke-width="1" fill="none" fill-rule="evenodd" sketch:type="MSPage">
        <g id="Главная-страница" sketch:type="MSArtboardGroup" transform="translate(-817.000000, -4746.000000)" fill="#C7C7C7">
            <g id="футер" sketch:type="MSLayerGroup" transform="translate(-8.000000, 4628.000000)">
                <g id="мыло" transform="translate(825.000000, 96.000000)" sketch:type="MSShapeGroup">
                    <path d="M21.333348,35.3332601 C21.333348,35.8009387 21.2017983,36.2344988 20.9910637,36.6159579 L14.2552513,29.0795476 L20.9180342,23.2502061 C21.1772206,23.6615188 21.333348,24.1446739 21.333348,24.6667839 L21.333348,35.3332601 L21.333348,35.3332601 Z M10.666696,30.4479374 L19.9377425,22.335997 C19.5572947,22.1277246 19.1288787,22 18.6667399,22 L2.66665201,22 C2.20394166,22 1.77539378,22.1277246 1.39648483,22.335997 L10.666696,30.4479374 L10.666696,30.4479374 Z M13.2513932,29.957176 L11.1054003,31.8360685 C10.979874,31.9454148 10.8235708,32.000022 10.666696,32.000022 C10.5097332,32.000022 10.35343,31.9454148 10.2279038,31.8360685 L8.08142717,29.9570881 L1.26040648,37.5898304 C1.66925706,37.8463348 2.14841114,38 2.66660804,38 L18.6667399,38 C19.1848489,38 19.6642228,37.8463348 20.0729415,37.5898304 L13.2513932,29.957176 L13.2513932,29.957176 Z M0.415401695,23.2501621 C0.156259274,23.6614749 0,24.14463 0,24.6667839 L0,35.333304 C0,35.8009827 0.130934192,36.2345428 0.342460182,36.6160018 L7.07748112,29.0782725 L0.415401695,23.2501621 L0.415401695,23.2501621 Z" id="мыло-иконка"></path>
                </g>
            </g>
        </g>
    </g>
</svg>