<?xml version="1.0" encoding="UTF-8" standalone="no"?>
<svg width="14px" height="21px" viewBox="0 0 14 21" version="1.1" xmlns="http://www.w3.org/2000/svg" xmlns:xlink="http://www.w3.org/1999/xlink" xmlns:sketch="http://www.bohemiancoding.com/sketch/ns">
    <!-- Generator: sketchtool 3.4 (356) - http://www.bohemiancoding.com/sketch -->
    <title>телефон футер</title>
    <desc>Created with sketchtool.</desc>
    <defs></defs>
    <g id="Page-1" stroke="none" stroke-width="1" fill="none" fill-rule="evenodd" sketch:type="MSPage">
        <g id="Главная-страница" sketch:type="MSArtboardGroup" transform="translate(-1061.000000, -4742.000000)" fill="#C7C7C7">
            <g id="футер" sketch:type="MSLayerGroup" transform="translate(-8.000000, 4628.000000)">
                <g id="телефон" transform="translate(1069.000000, 95.000000)" sketch:type="MSShapeGroup">
                    <path d="M12.2197322,19 L1.06044019,19 C0.552174702,19 0.140086207,19.3770526 0.140086207,19.8421053 L0.140086207,39.1578947 C0.140086207,39.6229474 0.552174702,40 1.06044019,40 L12.2197322,40 C12.7279977,40 13.1400862,39.6229474 13.1400862,39.1578947 L13.1400862,19.8421053 C13.1400862,19.3770526 12.7279977,19 12.2197322,19 L12.2197322,19 Z M5.39116585,20.7568421 L7.73714815,20.7568421 C7.82527205,20.7568421 7.89590922,20.8221053 7.89590922,20.9023158 C7.89590922,20.9825263 7.82458178,21.0477895 7.73714815,21.0477895 L5.39116585,21.0477895 C5.30350214,21.0477895 5.2321747,20.9825263 5.2321747,20.9023158 C5.2321747,20.8221053 5.30350214,20.7568421 5.39116585,20.7568421 L5.39116585,20.7568421 Z M6.564157,38.2429474 C6.27125435,38.2429474 6.03380302,38.0256842 6.03380302,37.7576842 C6.03380302,37.4896842 6.27102426,37.2722105 6.564157,37.2722105 C6.85705966,37.2722105 7.09451099,37.4894737 7.09451099,37.7576842 C7.09451099,38.0256842 6.85705966,38.2429474 6.564157,38.2429474 L6.564157,38.2429474 Z M12.0860508,36.6665263 L1.19412161,36.6665263 L1.19412161,22.3334737 L12.0860508,22.3334737 L12.0860508,36.6665263 L12.0860508,36.6665263 Z" id="телефон-футер"></path>
                </g>
            </g>
        </g>
    </g>
</svg>